<svg width="16" height="16" viewBox="0 0 16 16" fill="none" xmlns="http://www.w3.org/2000/svg">
  <path d="M8 0C3.582 0 0 3.582 0 8C0 11.538 2.292 14.394 5.468 15.429C5.832 15.5 5.975 15.268 5.975 15.067C5.975 14.894 5.966 14.194 5.961 13.27C4.083 13.742 3.637 12.494 3.637 12.494C3.284 11.668 2.771 11.45 2.771 11.45C2.051 10.964 2.819 10.973 2.819 10.973C3.612 11.025 3.977 11.831 3.977 11.831C4.676 13.038 5.855 12.645 6.295 12.433C6.37 11.923 6.564 11.59 6.788 11.396C4.945 11.198 3.037 10.526 3.037 7.494C3.037 6.641 3.349 5.948 3.873 5.448C3.786 5.244 3.507 4.423 3.955 3.338C3.955 3.338 4.669 3.106 5.959 4.147C6.647 3.947 7.388 3.859 8.129 3.855C8.87 3.859 9.612 3.947 10.302 4.147C11.592 3.106 12.305 3.338 12.305 3.338C12.755 4.423 12.476 5.244 12.389 5.448C12.915 5.948 13.227 6.641 13.227 7.494C13.227 10.536 11.314 11.195 9.466 11.389C9.749 11.612 9.992 12.084 9.992 12.793C9.992 13.862 9.978 14.736 9.978 15.066C9.978 15.269 10.12 15.503 10.49 15.429C13.662 14.395 16 11.537 16 8C16 3.582 12.418 0 8 0Z" fill="white"/>
</svg>
